<svg xmlns="http://www.w3.org/2000/svg" xmlns:xlink="http://www.w3.org/1999/xlink" width="112" zoomAndPan="magnify" viewBox="0 0 84 31.5" height="42" preserveAspectRatio="xMidYMid meet" version="1.0"><defs><g/><clipPath id="97af7e0f15"><path d="M 27 9 L 47.90625 9 L 47.90625 31.007812 L 27 31.007812 Z M 27 9 " clip-rule="nonzero"/></clipPath><clipPath id="0c8e2aa31b"><path d="M 18 13 L 31 13 L 31 31.007812 L 18 31.007812 Z M 18 13 " clip-rule="nonzero"/></clipPath><clipPath id="41b7d1d36a"><path d="M 1 9 L 22 9 L 22 31.007812 L 1 31.007812 Z M 1 9 " clip-rule="nonzero"/></clipPath></defs><g clip-path="url(#97af7e0f15)"><path fill="#83cd2d" d="M 27.578125 10.074219 C 29.5625 8.773438 31.914062 16.777344 34.285156 16.777344 C 36.652344 16.777344 38.703125 8.828125 40.988281 10.074219 C 42.773438 11.042969 34.992188 17.007812 38.175781 20.191406 C 39.773438 21.789062 47.871094 22.683594 47.367188 24.605469 C 46.765625 26.898438 39.453125 23.527344 37.910156 25.328125 C 36.367188 27.128906 39.488281 30.988281 37.3125 31.933594 C 34.871094 32.992188 34.273438 27.296875 33.335938 22.789062 C 32.25 17.539062 25.675781 11.316406 27.578125 10.074219 " fill-opacity="1" fill-rule="nonzero"/></g><path fill="#83cd2d" d="M 34.285156 15.640625 C 33.339844 15.640625 32.578125 14.75 32.578125 13.65625 C 32.578125 12.5625 33.339844 11.675781 34.285156 11.675781 C 35.226562 11.675781 35.988281 12.5625 35.988281 13.65625 C 35.988281 14.75 35.226562 15.640625 34.285156 15.640625 " fill-opacity="1" fill-rule="nonzero"/><g clip-path="url(#0c8e2aa31b)"><path fill="#f68c11" d="M 22.761719 13.765625 C 24.542969 13.863281 22.40625 19.765625 23.84375 20.824219 C 25.285156 21.878906 30.066406 17.96875 30.902344 19.742188 C 31.550781 21.125 24.171875 21.28125 24.6875 24.628906 C 24.945312 26.308594 29.460938 30.460938 28.300781 31.402344 C 26.914062 32.523438 23.976562 27.222656 22.238281 27.628906 C 20.5 28.03125 20.671875 31.765625 18.933594 31.371094 C 16.980469 30.925781 19.152344 27.203125 20.59375 24.050781 C 22.269531 20.378906 21.054688 13.675781 22.761719 13.765625 " fill-opacity="1" fill-rule="nonzero"/></g><path fill="#f68c11" d="M 24.351562 20.132812 C 23.78125 19.710938 23.710938 18.835938 24.199219 18.171875 C 24.6875 17.507812 25.546875 17.308594 26.117188 17.726562 C 26.6875 18.148438 26.757812 19.023438 26.269531 19.6875 C 25.78125 20.351562 24.921875 20.550781 24.351562 20.132812 " fill-opacity="1" fill-rule="nonzero"/><g clip-path="url(#41b7d1d36a)"><path fill="#ed166d" d="M 20.957031 10.074219 C 18.976562 8.773438 16.625 16.777344 14.253906 16.777344 C 11.882812 16.777344 9.832031 8.828125 7.546875 10.074219 C 5.761719 11.042969 13.542969 17.007812 10.359375 20.191406 C 8.761719 21.789062 0.664062 22.683594 1.167969 24.605469 C 1.769531 26.898438 9.082031 23.527344 10.625 25.328125 C 12.167969 27.128906 9.050781 30.988281 11.222656 31.933594 C 13.664062 32.992188 14.265625 27.296875 15.199219 22.789062 C 16.289062 17.539062 22.859375 11.316406 20.957031 10.074219 " fill-opacity="1" fill-rule="nonzero"/></g><path fill="#ed166d" d="M 14.253906 15.640625 C 15.195312 15.640625 15.957031 14.75 15.957031 13.65625 C 15.957031 12.5625 15.195312 11.675781 14.253906 11.675781 C 13.3125 11.675781 12.546875 12.5625 12.546875 13.65625 C 12.546875 14.75 13.3125 15.640625 14.253906 15.640625 " fill-opacity="1" fill-rule="nonzero"/><path fill="#f68c11" d="M 24.550781 0 L 25.820312 2.578125 L 28.664062 2.988281 L 26.605469 4.996094 L 27.09375 7.828125 L 24.550781 6.488281 L 22.003906 7.828125 L 22.492188 4.996094 L 20.433594 2.988281 L 23.277344 2.578125 L 24.550781 0 " fill-opacity="1" fill-rule="nonzero"/><path fill="#ed166d" d="M 16.667969 6.808594 L 17.128906 7.738281 L 18.15625 7.886719 L 17.410156 8.613281 L 17.585938 9.640625 L 16.667969 9.15625 L 15.746094 9.640625 L 15.921875 8.613281 L 15.179688 7.886719 L 16.207031 7.738281 L 16.667969 6.808594 " fill-opacity="1" fill-rule="nonzero"/><path fill="#5080d7" d="M 24.195312 9.074219 L 24.65625 10.003906 L 25.683594 10.15625 L 24.941406 10.878906 L 25.117188 11.90625 L 24.195312 11.421875 L 23.277344 11.90625 L 23.453125 10.878906 L 22.707031 10.15625 L 23.734375 10.003906 L 24.195312 9.074219 " fill-opacity="1" fill-rule="nonzero"/><path fill="#ee1d70" d="M 32.578125 7.828125 L 32.945312 8.574219 L 33.769531 8.691406 L 33.175781 9.273438 L 33.316406 10.09375 L 32.578125 9.707031 L 31.839844 10.09375 L 31.980469 9.273438 L 31.386719 8.691406 L 32.210938 8.574219 L 32.578125 7.828125 " fill-opacity="1" fill-rule="nonzero"/><path fill="#5080d7" d="M 31.171875 6.074219 C 31.171875 6.5 30.824219 6.847656 30.398438 6.847656 C 29.96875 6.847656 29.621094 6.5 29.621094 6.074219 C 29.621094 5.644531 29.96875 5.296875 30.398438 5.296875 C 30.824219 5.296875 31.171875 5.644531 31.171875 6.074219 " fill-opacity="1" fill-rule="nonzero"/><path fill="#ed166d" d="M 37.539062 9.238281 C 37.539062 9.574219 37.265625 9.847656 36.929688 9.847656 C 36.589844 9.847656 36.316406 9.574219 36.316406 9.238281 C 36.316406 8.898438 36.589844 8.625 36.929688 8.625 C 37.265625 8.625 37.539062 8.898438 37.539062 9.238281 " fill-opacity="1" fill-rule="nonzero"/><path fill="#ee1d70" d="M 19.839844 6.847656 C 19.839844 7.175781 19.574219 7.441406 19.246094 7.441406 C 18.917969 7.441406 18.652344 7.175781 18.652344 6.847656 C 18.652344 6.519531 18.917969 6.253906 19.246094 6.253906 C 19.574219 6.253906 19.839844 6.519531 19.839844 6.847656 " fill-opacity="1" fill-rule="nonzero"/><g fill="#5080d7" fill-opacity="1"><g transform="translate(39.558823, 7.672787)"><g><path d="M 2.097656 0.0898438 C 3.160156 0.0898438 3.8125 -0.414062 3.8125 -1.261719 C 3.8125 -1.972656 3.347656 -2.394531 2.234375 -2.65625 C 1.546875 -2.816406 1.3125 -2.988281 1.3125 -3.261719 C 1.3125 -3.558594 1.574219 -3.738281 2.003906 -3.738281 C 2.46875 -3.738281 2.75 -3.492188 2.75 -3.089844 L 3.730469 -3.089844 C 3.730469 -3.992188 3.050781 -4.570312 1.988281 -4.570312 C 0.960938 -4.570312 0.320312 -4.0625 0.320312 -3.246094 C 0.320312 -2.515625 0.8125 -2.078125 1.863281 -1.855469 C 2.496094 -1.722656 2.785156 -1.535156 2.785156 -1.222656 C 2.785156 -0.921875 2.515625 -0.75 2.09375 -0.75 C 1.601562 -0.75 1.28125 -1 1.28125 -1.425781 L 0.28125 -1.425781 C 0.28125 -0.5 0.972656 0.0898438 2.097656 0.0898438 Z M 2.097656 0.0898438 "/></g></g></g><g fill="#5080d7" fill-opacity="1"><g transform="translate(43.660688, 7.672787)"><g><path d="M 3.308594 0 L 4.324219 0 L 4.324219 -4.480469 L 3.308594 -4.480469 L 3.308594 -2.757812 L 1.554688 -2.757812 L 1.554688 -4.480469 L 0.539062 -4.480469 L 0.539062 0 L 1.554688 0 L 1.554688 -1.804688 L 3.308594 -1.804688 Z M 3.308594 0 "/></g></g></g><g fill="#5080d7" fill-opacity="1"><g transform="translate(48.524062, 7.672787)"><g><path d="M 2.660156 0.0898438 C 4.0625 0.0898438 5.054688 -0.871094 5.054688 -2.238281 C 5.054688 -3.609375 4.0625 -4.570312 2.660156 -4.570312 C 1.261719 -4.570312 0.273438 -3.609375 0.273438 -2.238281 C 0.273438 -0.871094 1.261719 0.0898438 2.660156 0.0898438 Z M 1.3125 -2.238281 C 1.3125 -3.046875 1.867188 -3.601562 2.660156 -3.601562 C 3.460938 -3.601562 4.011719 -3.046875 4.011719 -2.238281 C 4.011719 -1.433594 3.460938 -0.875 2.660156 -0.875 C 1.867188 -0.875 1.3125 -1.433594 1.3125 -2.238281 Z M 1.3125 -2.238281 "/></g></g></g><g fill="#5080d7" fill-opacity="1"><g transform="translate(53.854567, 7.672787)"><g><path d="M 0.539062 0 L 1.554688 0 L 1.554688 -1.246094 L 2.289062 -1.246094 C 3.371094 -1.246094 4.070312 -1.882812 4.070312 -2.859375 C 4.070312 -3.847656 3.371094 -4.480469 2.289062 -4.480469 L 0.539062 -4.480469 Z M 1.546875 -2.125 L 1.546875 -3.589844 L 2.207031 -3.589844 C 2.738281 -3.589844 3.03125 -3.320312 3.03125 -2.855469 C 3.03125 -2.386719 2.738281 -2.125 2.207031 -2.125 Z M 1.546875 -2.125 "/></g></g></g><g fill="#5080d7" fill-opacity="1"><g transform="translate(58.110016, 7.672787)"><g/></g></g><g fill="#5080d7" fill-opacity="1"><g transform="translate(59.613823, 7.672787)"><g><path d="M 2.097656 0.0898438 C 3.160156 0.0898438 3.8125 -0.414062 3.8125 -1.261719 C 3.8125 -1.972656 3.347656 -2.394531 2.234375 -2.65625 C 1.546875 -2.816406 1.3125 -2.988281 1.3125 -3.261719 C 1.3125 -3.558594 1.574219 -3.738281 2.003906 -3.738281 C 2.46875 -3.738281 2.75 -3.492188 2.75 -3.089844 L 3.730469 -3.089844 C 3.730469 -3.992188 3.050781 -4.570312 1.988281 -4.570312 C 0.960938 -4.570312 0.320312 -4.0625 0.320312 -3.246094 C 0.320312 -2.515625 0.8125 -2.078125 1.863281 -1.855469 C 2.496094 -1.722656 2.785156 -1.535156 2.785156 -1.222656 C 2.785156 -0.921875 2.515625 -0.75 2.09375 -0.75 C 1.601562 -0.75 1.28125 -1 1.28125 -1.425781 L 0.28125 -1.425781 C 0.28125 -0.5 0.972656 0.0898438 2.097656 0.0898438 Z M 2.097656 0.0898438 "/></g></g></g><g fill="#5080d7" fill-opacity="1"><g transform="translate(63.715688, 7.672787)"><g><path d="M 0.539062 0 L 1.546875 0 L 1.546875 -2.699219 L 2.636719 -1.105469 L 3.339844 -1.105469 L 4.429688 -2.695312 L 4.429688 0 L 5.4375 0 L 5.4375 -4.480469 L 4.582031 -4.480469 L 2.996094 -2.15625 L 1.402344 -4.480469 L 0.539062 -4.480469 Z M 0.539062 0 "/></g></g></g><g fill="#5080d7" fill-opacity="1"><g transform="translate(69.692517, 7.672787)"><g><path d="M 0.0585938 0 L 1.144531 0 L 1.445312 -0.773438 L 3.226562 -0.773438 L 3.527344 0 L 4.613281 0 L 2.835938 -4.480469 L 1.835938 -4.480469 Z M 1.707031 -1.574219 L 2.335938 -3.210938 L 2.96875 -1.574219 Z M 1.707031 -1.574219 "/></g></g></g><g fill="#5080d7" fill-opacity="1"><g transform="translate(74.363908, 7.672787)"><g><path d="M 0.539062 0 L 1.554688 0 L 1.554688 -1.394531 L 2.226562 -1.394531 L 3.027344 0 L 4.203125 0 L 3.277344 -1.554688 C 3.8125 -1.792969 4.128906 -2.277344 4.128906 -2.9375 C 4.128906 -3.890625 3.476562 -4.480469 2.449219 -4.480469 L 0.539062 -4.480469 Z M 1.542969 -2.253906 L 1.542969 -3.609375 L 2.316406 -3.609375 C 2.816406 -3.609375 3.097656 -3.367188 3.097656 -2.929688 C 3.097656 -2.496094 2.816406 -2.253906 2.316406 -2.253906 Z M 1.542969 -2.253906 "/></g></g></g><g fill="#5080d7" fill-opacity="1"><g transform="translate(78.868924, 7.672787)"><g><path d="M 1.613281 0 L 2.628906 0 L 2.628906 -3.527344 L 4.050781 -3.527344 L 4.050781 -4.480469 L 0.191406 -4.480469 L 0.191406 -3.527344 L 1.613281 -3.527344 Z M 1.613281 0 "/></g></g></g><g fill="#000000" fill-opacity="1"><g transform="translate(48.627568, 28.80281)"><g><path d="M 5.5625 0 L 7.105469 0 L 12.332031 -13.15625 L 10.582031 -13.15625 L 8.382812 -7.613281 L 6.335938 -2.386719 L 4.265625 -7.613281 L 2.085938 -13.15625 L 0.320312 -13.15625 Z M 5.5625 0 "/></g></g></g><g fill="#000000" fill-opacity="1"><g transform="translate(66.012198, 28.80281)"><g><path d="M 10.542969 0 L 12.199219 0 L 12.199219 -13.15625 L 10.542969 -13.15625 L 10.542969 -7.5 L 3.570312 -7.5 L 3.570312 -13.15625 L 1.917969 -13.15625 L 1.917969 0 L 3.570312 0 L 3.570312 -5.921875 L 10.542969 -5.921875 Z M 10.542969 0 "/></g></g></g></svg>